<mxfile host="65bd71144e">
    <diagram id="L_kLu3X8epegVBQwN199" name="Страница 1">
        <mxGraphModel dx="691" dy="569" grid="1" gridSize="10" guides="1" tooltips="1" connect="1" arrows="1" fold="1" page="1" pageScale="1" pageWidth="827" pageHeight="1169" math="0" shadow="0">
            <root>
                <mxCell id="0"/>
                <mxCell id="1" parent="0"/>
                <mxCell id="2" value="" style="rounded=1;whiteSpace=wrap;html=1;fillColor=#0050ef;fontColor=#ffffff;strokeColor=#001DBC;" parent="1" vertex="1">
                    <mxGeometry x="60" y="100" width="600" height="525" as="geometry"/>
                </mxCell>
                <mxCell id="3" value="&amp;nbsp;list Nomenclature katalog" style="text;html=1;strokeColor=#666666;fillColor=#f5f5f5;align=center;verticalAlign=middle;whiteSpace=wrap;rounded=0;fontColor=#333333;" parent="1" vertex="1">
                    <mxGeometry x="220" y="555" width="250" height="30" as="geometry"/>
                </mxCell>
                <mxCell id="4" value="" style="rounded=1;whiteSpace=wrap;html=1;" parent="1" vertex="1">
                    <mxGeometry x="205.5" y="290" width="229" height="60" as="geometry"/>
                </mxCell>
                <mxCell id="6" value="" style="rounded=1;whiteSpace=wrap;html=1;" parent="1" vertex="1">
                    <mxGeometry x="210" y="435" width="230" height="60" as="geometry"/>
                </mxCell>
                <mxCell id="7" value="" style="whiteSpace=wrap;html=1;aspect=fixed;" parent="1" vertex="1">
                    <mxGeometry x="240" y="160" width="70" height="70" as="geometry"/>
                </mxCell>
                <mxCell id="9" value="" style="whiteSpace=wrap;html=1;aspect=fixed;" parent="1" vertex="1">
                    <mxGeometry x="339" y="160" width="70" height="70" as="geometry"/>
                </mxCell>
                <mxCell id="11" value="nomenclature Item" style="text;html=1;strokeColor=none;fillColor=none;align=center;verticalAlign=middle;whiteSpace=wrap;rounded=0;" parent="1" vertex="1">
                    <mxGeometry x="250" y="305" width="120" height="30" as="geometry"/>
                </mxCell>
                <mxCell id="13" value="nomenclature Item" style="text;html=1;strokeColor=none;fillColor=none;align=center;verticalAlign=middle;whiteSpace=wrap;rounded=0;" parent="1" vertex="1">
                    <mxGeometry x="260" y="450" width="120" height="30" as="geometry"/>
                </mxCell>
                <mxCell id="14" value="view" style="text;html=1;strokeColor=#3700CC;fillColor=#6a00ff;align=center;verticalAlign=middle;whiteSpace=wrap;rounded=0;fontColor=#ffffff;" parent="1" vertex="1">
                    <mxGeometry x="245" y="174" width="60" height="30" as="geometry"/>
                </mxCell>
                <mxCell id="35" style="edgeStyle=none;html=1;exitX=0.25;exitY=0;exitDx=0;exitDy=0;entryX=0.25;entryY=0;entryDx=0;entryDy=0;" parent="1" source="16" target="9" edge="1">
                    <mxGeometry relative="1" as="geometry"/>
                </mxCell>
                <mxCell id="16" value="opt view" style="text;html=1;strokeColor=#3700CC;fillColor=#6a00ff;align=center;verticalAlign=middle;whiteSpace=wrap;rounded=0;fontColor=#ffffff;" parent="1" vertex="1">
                    <mxGeometry x="344" y="174" width="60" height="30" as="geometry"/>
                </mxCell>
                <mxCell id="17" value="QR code" style="ellipse;whiteSpace=wrap;html=1;aspect=fixed;" parent="1" vertex="1">
                    <mxGeometry x="60" y="350" width="80" height="80" as="geometry"/>
                </mxCell>
                <mxCell id="19" value="" style="shape=singleArrow;whiteSpace=wrap;html=1;arrowWidth=0.4;arrowSize=0.4;fillColor=#f5f5f5;strokeColor=#666666;fontColor=#333333;gradientColor=none;rounded=0;" parent="1" vertex="1">
                    <mxGeometry x="70" y="535" width="120" height="60" as="geometry"/>
                </mxCell>
                <mxCell id="25" value="" style="shape=flexArrow;endArrow=classic;html=1;entryX=0;entryY=0.5;entryDx=0;entryDy=0;" parent="1" source="17" target="4" edge="1">
                    <mxGeometry width="50" height="50" relative="1" as="geometry">
                        <mxPoint x="260" y="340" as="sourcePoint"/>
                        <mxPoint x="310" y="290" as="targetPoint"/>
                    </mxGeometry>
                </mxCell>
                <mxCell id="26" value="" style="shape=flexArrow;endArrow=classic;html=1;exitX=1;exitY=1;exitDx=0;exitDy=0;entryX=0;entryY=0;entryDx=0;entryDy=0;" parent="1" source="17" target="3" edge="1">
                    <mxGeometry width="50" height="50" relative="1" as="geometry">
                        <mxPoint x="260" y="340" as="sourcePoint"/>
                        <mxPoint x="310" y="290" as="targetPoint"/>
                    </mxGeometry>
                </mxCell>
                <mxCell id="28" value="" style="rounded=1;whiteSpace=wrap;html=1;" parent="1" vertex="1">
                    <mxGeometry x="210" y="360" width="230" height="60" as="geometry"/>
                </mxCell>
                <mxCell id="29" value="nomenclature Item" style="text;html=1;strokeColor=none;fillColor=none;align=center;verticalAlign=middle;whiteSpace=wrap;rounded=0;" parent="1" vertex="1">
                    <mxGeometry x="250" y="375" width="120" height="30" as="geometry"/>
                </mxCell>
                <mxCell id="30" value="&lt;div style=&quot;color: rgb(212 , 212 , 212) ; background-color: rgb(30 , 30 , 30) ; font-family: &amp;#34;fixedsys&amp;#34; , &amp;#34;fira code&amp;#34; , &amp;#34;menlo&amp;#34; , &amp;#34;monaco&amp;#34; , &amp;#34;courier new&amp;#34; , monospace , &amp;#34;consolas&amp;#34; , &amp;#34;courier new&amp;#34; , monospace ; font-size: 17px ; line-height: 23px&quot;&gt;&lt;span style=&quot;color: #9cdcfe&quot;&gt;Clipboard&lt;/span&gt;&lt;/div&gt;" style="ellipse;whiteSpace=wrap;html=1;aspect=fixed;" parent="1" vertex="1">
                    <mxGeometry x="500" y="260" width="100" height="100" as="geometry"/>
                </mxCell>
                <mxCell id="31" value="" style="shape=flexArrow;endArrow=classic;html=1;entryX=0.5;entryY=1;entryDx=0;entryDy=0;" parent="1" target="9" edge="1">
                    <mxGeometry width="50" height="50" relative="1" as="geometry">
                        <mxPoint x="374" y="290" as="sourcePoint"/>
                        <mxPoint x="310" y="280" as="targetPoint"/>
                    </mxGeometry>
                </mxCell>
                <mxCell id="33" value="" style="shape=flexArrow;endArrow=classic;html=1;entryX=0;entryY=0.5;entryDx=0;entryDy=0;exitX=1;exitY=0.5;exitDx=0;exitDy=0;" parent="1" source="4" target="30" edge="1">
                    <mxGeometry width="50" height="50" relative="1" as="geometry">
                        <mxPoint x="440" y="320" as="sourcePoint"/>
                        <mxPoint x="310" y="280" as="targetPoint"/>
                    </mxGeometry>
                </mxCell>
                <mxCell id="34" value="" style="shape=flexArrow;endArrow=classic;html=1;entryX=0.5;entryY=1;entryDx=0;entryDy=0;exitX=1;exitY=0;exitDx=0;exitDy=0;" parent="1" source="3" target="30" edge="1">
                    <mxGeometry width="50" height="50" relative="1" as="geometry">
                        <mxPoint x="260" y="330" as="sourcePoint"/>
                        <mxPoint x="310" y="280" as="targetPoint"/>
                    </mxGeometry>
                </mxCell>
                <mxCell id="36" value="" style="shape=flexArrow;endArrow=classic;html=1;entryX=0.5;entryY=1;entryDx=0;entryDy=0;exitX=0.312;exitY=-0.011;exitDx=0;exitDy=0;exitPerimeter=0;" parent="1" source="4" target="7" edge="1">
                    <mxGeometry width="50" height="50" relative="1" as="geometry">
                        <mxPoint x="260" y="330" as="sourcePoint"/>
                        <mxPoint x="310" y="280" as="targetPoint"/>
                    </mxGeometry>
                </mxCell>
                <mxCell id="NlNz0dopFEJM5hS2L_JA-38" value="http.get()" style="text;html=1;align=center;verticalAlign=middle;whiteSpace=wrap;rounded=0;fillColor=#f5f5f5;fontColor=#333333;strokeColor=#666666;" parent="1" vertex="1">
                    <mxGeometry x="70" y="550" width="60" height="30" as="geometry"/>
                </mxCell>
                <mxCell id="NlNz0dopFEJM5hS2L_JA-40" value="Actor" style="shape=umlActor;verticalLabelPosition=bottom;verticalAlign=top;html=1;outlineConnect=0;" parent="1" vertex="1">
                    <mxGeometry x="10" y="535" width="30" height="60" as="geometry"/>
                </mxCell>
            </root>
        </mxGraphModel>
    </diagram>
    <diagram id="8eWsqql-C955waRc1kko" name="Страница 2">
        <mxGraphModel dx="691" dy="569" grid="1" gridSize="10" guides="1" tooltips="1" connect="1" arrows="1" fold="1" page="1" pageScale="1" pageWidth="827" pageHeight="1169" math="0" shadow="0">
            <root>
                <mxCell id="kU7xPiwq-khf1TAPe_ID-0"/>
                <mxCell id="kU7xPiwq-khf1TAPe_ID-1" parent="kU7xPiwq-khf1TAPe_ID-0"/>
                <mxCell id="tDxg9bR4u0kB8Xw70Ub0-0" value="" style="whiteSpace=wrap;html=1;aspect=fixed;" parent="kU7xPiwq-khf1TAPe_ID-1" vertex="1">
                    <mxGeometry x="130" y="180" width="120" height="120" as="geometry"/>
                </mxCell>
                <mxCell id="TBs14J2OcaN_3O58yqrt-0" value="view" style="text;html=1;strokeColor=#3700CC;fillColor=#6a00ff;align=center;verticalAlign=middle;whiteSpace=wrap;rounded=0;fontColor=#ffffff;" parent="kU7xPiwq-khf1TAPe_ID-1" vertex="1">
                    <mxGeometry x="160" y="225" width="60" height="30" as="geometry"/>
                </mxCell>
                <mxCell id="TBs14J2OcaN_3O58yqrt-2" value="" style="swimlane;startSize=0;" parent="kU7xPiwq-khf1TAPe_ID-1" vertex="1">
                    <mxGeometry x="400" y="100" width="200" height="140" as="geometry"/>
                </mxCell>
                <mxCell id="TBs14J2OcaN_3O58yqrt-6" value="Images" style="text;html=1;align=center;verticalAlign=middle;resizable=0;points=[];autosize=1;strokeColor=none;fillColor=none;" parent="TBs14J2OcaN_3O58yqrt-2" vertex="1">
                    <mxGeometry x="75" y="60" width="50" height="20" as="geometry"/>
                </mxCell>
                <mxCell id="TBs14J2OcaN_3O58yqrt-3" value="" style="swimlane;startSize=0;" parent="kU7xPiwq-khf1TAPe_ID-1" vertex="1">
                    <mxGeometry x="400" y="310" width="200" height="200" as="geometry">
                        <mxRectangle x="410" y="290" width="50" height="40" as="alternateBounds"/>
                    </mxGeometry>
                </mxCell>
                <mxCell id="TBs14J2OcaN_3O58yqrt-7" value="Table" style="text;html=1;align=center;verticalAlign=middle;resizable=0;points=[];autosize=1;strokeColor=none;fillColor=none;" parent="TBs14J2OcaN_3O58yqrt-3" vertex="1">
                    <mxGeometry x="70" y="80" width="40" height="20" as="geometry"/>
                </mxCell>
                <mxCell id="TBs14J2OcaN_3O58yqrt-4" value="" style="shape=flexArrow;endArrow=classic;html=1;exitX=0.992;exitY=0.422;exitDx=0;exitDy=0;exitPerimeter=0;entryX=0;entryY=0.5;entryDx=0;entryDy=0;" parent="kU7xPiwq-khf1TAPe_ID-1" source="tDxg9bR4u0kB8Xw70Ub0-0" target="TBs14J2OcaN_3O58yqrt-2" edge="1">
                    <mxGeometry width="50" height="50" relative="1" as="geometry">
                        <mxPoint x="330" y="360" as="sourcePoint"/>
                        <mxPoint x="380" y="310" as="targetPoint"/>
                    </mxGeometry>
                </mxCell>
                <mxCell id="TBs14J2OcaN_3O58yqrt-5" value="" style="shape=flexArrow;endArrow=classic;html=1;exitX=1.02;exitY=0.838;exitDx=0;exitDy=0;exitPerimeter=0;entryX=0;entryY=0.25;entryDx=0;entryDy=0;" parent="kU7xPiwq-khf1TAPe_ID-1" source="tDxg9bR4u0kB8Xw70Ub0-0" target="TBs14J2OcaN_3O58yqrt-3" edge="1">
                    <mxGeometry width="50" height="50" relative="1" as="geometry">
                        <mxPoint x="330" y="360" as="sourcePoint"/>
                        <mxPoint x="380" y="310" as="targetPoint"/>
                    </mxGeometry>
                </mxCell>
            </root>
        </mxGraphModel>
    </diagram>
    <diagram id="mRTkF5h-hfggiwhOe0ea" name="Страница 3">
        <mxGraphModel dx="691" dy="569" grid="1" gridSize="10" guides="1" tooltips="1" connect="1" arrows="1" fold="1" page="1" pageScale="1" pageWidth="827" pageHeight="1169" math="0" shadow="0">
            <root>
                <mxCell id="DMlHOETDV7XkjLK8qEzX-0"/>
                <mxCell id="DMlHOETDV7XkjLK8qEzX-1" parent="DMlHOETDV7XkjLK8qEzX-0"/>
                <mxCell id="DMlHOETDV7XkjLK8qEzX-2" value="Actor" style="shape=umlActor;verticalLabelPosition=bottom;verticalAlign=top;html=1;outlineConnect=0;" vertex="1" parent="DMlHOETDV7XkjLK8qEzX-1">
                    <mxGeometry x="20" y="750" width="30" height="60" as="geometry"/>
                </mxCell>
                <mxCell id="DMlHOETDV7XkjLK8qEzX-3" value="" style="rounded=1;whiteSpace=wrap;html=1;" vertex="1" parent="DMlHOETDV7XkjLK8qEzX-1">
                    <mxGeometry x="180" y="750" width="200" height="60" as="geometry"/>
                </mxCell>
                <mxCell id="DMlHOETDV7XkjLK8qEzX-4" value="ItemKatalog" style="text;html=1;strokeColor=none;fillColor=none;align=center;verticalAlign=middle;whiteSpace=wrap;rounded=0;" vertex="1" parent="DMlHOETDV7XkjLK8qEzX-1">
                    <mxGeometry x="230" y="765" width="70" height="30" as="geometry"/>
                </mxCell>
                <mxCell id="DMlHOETDV7XkjLK8qEzX-5" value="" style="shape=flexArrow;endArrow=classic;html=1;entryX=0;entryY=0.5;entryDx=0;entryDy=0;" edge="1" parent="DMlHOETDV7XkjLK8qEzX-1" source="DMlHOETDV7XkjLK8qEzX-2" target="DMlHOETDV7XkjLK8qEzX-3">
                    <mxGeometry width="50" height="50" relative="1" as="geometry">
                        <mxPoint x="330" y="620" as="sourcePoint"/>
                        <mxPoint x="380" y="570" as="targetPoint"/>
                    </mxGeometry>
                </mxCell>
                <mxCell id="DMlHOETDV7XkjLK8qEzX-6" value="" style="whiteSpace=wrap;html=1;aspect=fixed;" vertex="1" parent="DMlHOETDV7XkjLK8qEzX-1">
                    <mxGeometry x="160" y="470" width="180" height="180" as="geometry"/>
                </mxCell>
                <mxCell id="DMlHOETDV7XkjLK8qEzX-9" value="" style="shape=flexArrow;endArrow=classic;html=1;entryX=0.56;entryY=1;entryDx=0;entryDy=0;entryPerimeter=0;exitX=0.398;exitY=0.011;exitDx=0;exitDy=0;exitPerimeter=0;" edge="1" parent="DMlHOETDV7XkjLK8qEzX-1" source="DMlHOETDV7XkjLK8qEzX-3" target="DMlHOETDV7XkjLK8qEzX-6">
                    <mxGeometry width="50" height="50" relative="1" as="geometry">
                        <mxPoint x="263" y="740" as="sourcePoint"/>
                        <mxPoint x="380" y="570" as="targetPoint"/>
                    </mxGeometry>
                </mxCell>
                <mxCell id="DMlHOETDV7XkjLK8qEzX-13" value="Actor" style="shape=umlActor;verticalLabelPosition=bottom;verticalAlign=top;html=1;outlineConnect=0;" vertex="1" parent="DMlHOETDV7XkjLK8qEzX-1">
                    <mxGeometry x="30" y="880" width="30" height="60" as="geometry"/>
                </mxCell>
                <mxCell id="DMlHOETDV7XkjLK8qEzX-14" value="" style="rounded=1;whiteSpace=wrap;html=1;" vertex="1" parent="DMlHOETDV7XkjLK8qEzX-1">
                    <mxGeometry x="420" y="890" width="240" height="60" as="geometry"/>
                </mxCell>
                <mxCell id="DMlHOETDV7XkjLK8qEzX-15" value="" style="shape=flexArrow;endArrow=classic;html=1;exitX=0.5;exitY=0.5;exitDx=0;exitDy=0;exitPerimeter=0;entryX=0;entryY=0.5;entryDx=0;entryDy=0;" edge="1" parent="DMlHOETDV7XkjLK8qEzX-1" source="DMlHOETDV7XkjLK8qEzX-13" target="DMlHOETDV7XkjLK8qEzX-14">
                    <mxGeometry width="50" height="50" relative="1" as="geometry">
                        <mxPoint x="330" y="720" as="sourcePoint"/>
                        <mxPoint x="380" y="670" as="targetPoint"/>
                    </mxGeometry>
                </mxCell>
                <mxCell id="DMlHOETDV7XkjLK8qEzX-16" value="" style="whiteSpace=wrap;html=1;aspect=fixed;" vertex="1" parent="DMlHOETDV7XkjLK8qEzX-1">
                    <mxGeometry x="460" y="470" width="190" height="190" as="geometry"/>
                </mxCell>
                <mxCell id="DMlHOETDV7XkjLK8qEzX-17" value="" style="shape=flexArrow;endArrow=classic;html=1;exitX=0.47;exitY=-0.047;exitDx=0;exitDy=0;exitPerimeter=0;entryX=0.25;entryY=1;entryDx=0;entryDy=0;" edge="1" parent="DMlHOETDV7XkjLK8qEzX-1" source="DMlHOETDV7XkjLK8qEzX-14" target="DMlHOETDV7XkjLK8qEzX-16">
                    <mxGeometry width="50" height="50" relative="1" as="geometry">
                        <mxPoint x="330" y="720" as="sourcePoint"/>
                        <mxPoint x="380" y="670" as="targetPoint"/>
                    </mxGeometry>
                </mxCell>
                <mxCell id="X07TaIWTasU2zoOHf2z8-0" value="opt-ItemKatalog" style="text;html=1;strokeColor=none;fillColor=none;align=center;verticalAlign=middle;whiteSpace=wrap;rounded=0;" vertex="1" parent="DMlHOETDV7XkjLK8qEzX-1">
                    <mxGeometry x="500" y="905" width="120" height="30" as="geometry"/>
                </mxCell>
                <mxCell id="X07TaIWTasU2zoOHf2z8-1" value="" style="rounded=1;whiteSpace=wrap;html=1;" vertex="1" parent="DMlHOETDV7XkjLK8qEzX-1">
                    <mxGeometry x="505" y="600" width="120" height="35" as="geometry"/>
                </mxCell>
                <mxCell id="X07TaIWTasU2zoOHf2z8-2" value="" style="rounded=1;whiteSpace=wrap;html=1;" vertex="1" parent="DMlHOETDV7XkjLK8qEzX-1">
                    <mxGeometry x="505" y="550" width="120" height="34.5" as="geometry"/>
                </mxCell>
                <mxCell id="X07TaIWTasU2zoOHf2z8-4" value="" style="rounded=1;whiteSpace=wrap;html=1;" vertex="1" parent="DMlHOETDV7XkjLK8qEzX-1">
                    <mxGeometry x="505" y="500" width="120" height="40" as="geometry"/>
                </mxCell>
                <mxCell id="X07TaIWTasU2zoOHf2z8-5" value="opt-nomenclature" style="text;html=1;strokeColor=none;fillColor=none;align=center;verticalAlign=middle;whiteSpace=wrap;rounded=0;" vertex="1" parent="DMlHOETDV7XkjLK8qEzX-1">
                    <mxGeometry x="530" y="602.5" width="70" height="30" as="geometry"/>
                </mxCell>
                <mxCell id="X07TaIWTasU2zoOHf2z8-6" value="opt-nomenclature" style="text;html=1;strokeColor=none;fillColor=none;align=center;verticalAlign=middle;whiteSpace=wrap;rounded=0;" vertex="1" parent="DMlHOETDV7XkjLK8qEzX-1">
                    <mxGeometry x="525" y="555" width="70" height="30" as="geometry"/>
                </mxCell>
                <mxCell id="X07TaIWTasU2zoOHf2z8-7" value="opt-nomenclature" style="text;html=1;strokeColor=none;fillColor=none;align=center;verticalAlign=middle;whiteSpace=wrap;rounded=0;" vertex="1" parent="DMlHOETDV7XkjLK8qEzX-1">
                    <mxGeometry x="525" y="505" width="70" height="30" as="geometry"/>
                </mxCell>
                <mxCell id="X07TaIWTasU2zoOHf2z8-8" value="" style="rounded=1;whiteSpace=wrap;html=1;" vertex="1" parent="DMlHOETDV7XkjLK8qEzX-1">
                    <mxGeometry x="190" y="585" width="120" height="35" as="geometry"/>
                </mxCell>
                <mxCell id="X07TaIWTasU2zoOHf2z8-9" value="" style="rounded=1;whiteSpace=wrap;html=1;" vertex="1" parent="DMlHOETDV7XkjLK8qEzX-1">
                    <mxGeometry x="190" y="540" width="120" height="35" as="geometry"/>
                </mxCell>
                <mxCell id="X07TaIWTasU2zoOHf2z8-10" value="" style="rounded=1;whiteSpace=wrap;html=1;" vertex="1" parent="DMlHOETDV7XkjLK8qEzX-1">
                    <mxGeometry x="190" y="500" width="120" height="35" as="geometry"/>
                </mxCell>
                <mxCell id="X07TaIWTasU2zoOHf2z8-11" value="nomenclature" style="text;html=1;strokeColor=none;fillColor=none;align=center;verticalAlign=middle;whiteSpace=wrap;rounded=0;" vertex="1" parent="DMlHOETDV7XkjLK8qEzX-1">
                    <mxGeometry x="210" y="585" width="60" height="30" as="geometry"/>
                </mxCell>
                <mxCell id="X07TaIWTasU2zoOHf2z8-12" value="nomenclature" style="text;html=1;strokeColor=none;fillColor=none;align=center;verticalAlign=middle;whiteSpace=wrap;rounded=0;" vertex="1" parent="DMlHOETDV7XkjLK8qEzX-1">
                    <mxGeometry x="220" y="540" width="60" height="30" as="geometry"/>
                </mxCell>
                <mxCell id="X07TaIWTasU2zoOHf2z8-13" value="nomenclature" style="text;html=1;strokeColor=none;fillColor=none;align=center;verticalAlign=middle;whiteSpace=wrap;rounded=0;" vertex="1" parent="DMlHOETDV7XkjLK8qEzX-1">
                    <mxGeometry x="220" y="502.5" width="60" height="30" as="geometry"/>
                </mxCell>
                <mxCell id="X07TaIWTasU2zoOHf2z8-22" style="edgeStyle=none;html=1;" edge="1" parent="DMlHOETDV7XkjLK8qEzX-1" source="X07TaIWTasU2zoOHf2z8-14">
                    <mxGeometry relative="1" as="geometry">
                        <mxPoint x="60" y="910" as="targetPoint"/>
                    </mxGeometry>
                </mxCell>
                <mxCell id="X07TaIWTasU2zoOHf2z8-14" value="Реализатор" style="text;html=1;strokeColor=none;fillColor=none;align=center;verticalAlign=middle;whiteSpace=wrap;rounded=0;" vertex="1" parent="DMlHOETDV7XkjLK8qEzX-1">
                    <mxGeometry x="120" y="870" width="60" height="30" as="geometry"/>
                </mxCell>
                <mxCell id="X07TaIWTasU2zoOHf2z8-17" style="edgeStyle=none;html=1;entryX=0.75;entryY=0.1;entryDx=0;entryDy=0;entryPerimeter=0;" edge="1" parent="DMlHOETDV7XkjLK8qEzX-1" source="X07TaIWTasU2zoOHf2z8-15" target="DMlHOETDV7XkjLK8qEzX-2">
                    <mxGeometry relative="1" as="geometry"/>
                </mxCell>
                <mxCell id="X07TaIWTasU2zoOHf2z8-15" value="Покупатель" style="text;html=1;strokeColor=none;fillColor=none;align=center;verticalAlign=middle;whiteSpace=wrap;rounded=0;" vertex="1" parent="DMlHOETDV7XkjLK8qEzX-1">
                    <mxGeometry x="20" y="700" width="60" height="30" as="geometry"/>
                </mxCell>
            </root>
        </mxGraphModel>
    </diagram>
</mxfile>
